<svg width="85.843" height="50.25" viewBox="0 0 85.843 50.25" xmlns="http://www.w3.org/2000/svg"><g id="svgGroup" stroke-linecap="round" fill-rule="evenodd" font-size="9pt" stroke="#000000" stroke-width="0.25mm" fill="#000000" style="stroke:#000000;stroke-width:0.25mm;fill:#000000"><path d="M 15.653 50.25 Q 12.753 50.25 9.953 49.05 Q 7.153 47.85 4.903 45.575 Q 2.653 43.3 1.328 40.025 Q 0.003 36.75 0.003 32.6 Q 0.003 28.35 1.728 24 Q 3.453 19.65 7.153 15.85 Q 10.853 12.05 16.703 9.4 A 42.794 42.794 0 0 1 28.283 6.21 A 63.47 63.47 0 0 1 30.803 5.9 Q 31.203 5.9 31.203 6.3 Q 31.203 6.65 30.803 6.65 Q 29.003 6.7 27.878 7.9 Q 26.753 9.1 25.703 11 Q 24.803 12.6 24.528 14.775 Q 24.253 16.95 24.153 19.45 Q 26.003 20.7 27.403 22.725 Q 28.803 24.75 29.453 27.6 Q 31.303 24.55 33.128 21.5 Q 34.953 18.45 36.603 15.8 Q 38.253 13.15 39.678 11.225 Q 41.103 9.3 42.153 8.55 Q 43.803 7.35 44.953 6.775 Q 46.103 6.2 46.978 6.025 A 7 7 0 0 1 48.354 5.889 A 7.188 7.188 0 0 1 48.753 5.9 Q 49.153 5.9 49.153 6.3 Q 49.153 6.65 48.753 6.65 Q 46.953 6.7 45.828 7.9 Q 44.703 9.1 43.653 11 Q 42.703 12.7 42.403 15.1 Q 42.103 17.5 42.053 20.275 Q 42.003 23.05 41.903 26.025 Q 41.803 29 41.253 31.95 Q 40.703 34.9 39.403 37.6 Q 38.103 40.3 35.653 42.5 Q 37.303 41.9 39.103 39.85 Q 40.903 37.8 42.853 34.75 Q 44.803 31.7 46.853 28.025 Q 48.903 24.35 51.053 20.45 Q 53.203 16.55 55.453 12.85 Q 57.703 9.15 59.953 6.05 Q 62.553 2.6 65.453 1.3 Q 68.353 0 70.553 0 Q 73.353 0.1 74.903 2 Q 75.053 2.2 75.053 2.35 Q 75.053 2.5 74.903 2.55 A 0.255 0.255 0 0 1 74.821 2.563 A 0.654 0.654 0 0 1 74.503 2.45 Q 73.903 1.9 72.653 1.9 Q 72.303 1.9 71.878 1.95 Q 71.453 2 71.053 2.1 Q 67.953 2.75 65.153 4.925 Q 62.353 7.1 59.778 10.3 Q 57.203 13.5 54.828 17.3 Q 52.453 21.1 50.153 25.025 Q 47.853 28.95 45.628 32.55 Q 43.403 36.15 41.178 38.975 Q 38.953 41.8 36.653 43.4 A 7.439 7.439 0 0 1 32.363 44.863 A 6.582 6.582 0 0 1 31.953 44.85 Q 31.553 44.85 31.553 44.55 Q 31.553 44.35 31.753 44.2 Q 33.703 42.85 34.953 40.65 Q 36.203 38.45 36.928 35.75 Q 37.653 33.05 38.053 30.175 Q 38.453 27.3 38.703 24.575 Q 38.953 21.85 39.253 19.7 Q 39.503 18.05 39.978 16.1 Q 40.453 14.15 41.303 12.3 Q 42.153 10.45 43.428 9 Q 44.703 7.55 46.453 6.9 Q 44.603 7.3 42.603 9.4 Q 40.603 11.5 38.503 14.75 Q 36.403 18 34.203 21.8 Q 32.003 25.6 29.753 29.35 Q 29.903 30.4 29.903 31.6 Q 29.903 35.85 28.903 39.15 Q 29.903 38.3 30.878 37.15 Q 31.853 36 32.653 34.45 Q 32.803 34.25 32.953 34.25 Q 33.153 34.25 33.278 34.425 A 0.343 0.343 0 0 1 33.347 34.628 A 0.385 0.385 0 0 1 33.303 34.8 Q 32.203 36.75 31.003 38.15 Q 29.803 39.55 28.503 40.5 Q 26.703 45.5 23.178 47.875 Q 19.653 50.25 15.653 50.25 Z M 58.553 34 L 60.703 29.5 Q 61.553 29.3 62.428 29.025 Q 63.303 28.75 64.103 28.4 Q 63.253 29.85 62.478 31.45 Q 61.703 33.05 60.903 34.6 Q 60.303 35.75 59.728 37.3 A 8.145 8.145 0 0 0 59.153 40.1 L 59.153 40.3 Q 59.153 40.7 59.253 41.175 Q 59.353 41.65 59.803 41.65 Q 60.353 41.65 61.203 40.975 Q 62.053 40.3 62.403 39.95 A 18.513 18.513 0 0 0 64.399 37.59 A 0.229 0.229 0 0 1 64.392 37.575 A 0.034 0.034 0 0 1 64.403 37.55 Q 65.253 36.2 66.028 34.85 Q 66.803 33.5 67.453 32.15 Q 68.003 31.1 68.653 29.925 Q 69.303 28.75 70.153 27.95 Q 71.003 27.15 72.103 27.15 Q 72.603 27.15 73.253 27.4 Q 73.953 27.7 73.953 28.75 Q 73.953 29.3 73.753 30.1 Q 73.553 30.9 73.203 31.9 Q 74.503 30.05 75.953 28.725 Q 77.403 27.4 78.603 27.4 Q 80.503 27.4 80.503 29.2 Q 80.503 30.3 79.853 31.9 Q 79.653 32.45 79.128 33.625 Q 78.603 34.8 78.078 36.225 Q 77.553 37.65 77.153 38.95 Q 76.753 40.25 76.753 41.1 Q 76.753 42 77.303 42 Q 77.653 42 78.228 41.675 Q 78.803 41.35 79.603 40.6 Q 81.053 39.3 82.328 37.3 A 72.756 72.756 0 0 0 85.244 32.159 A 137.63 137.63 0 0 0 85.353 31.95 Q 85.353 31.85 85.453 31.85 Q 85.603 31.85 85.753 32 Q 85.903 32.15 85.803 32.25 Q 84.003 35.75 82.528 38.075 Q 81.053 40.4 79.578 41.575 Q 78.103 42.75 76.303 42.75 Q 74.203 42.75 74.203 40.4 Q 74.203 39.5 74.553 38.25 Q 74.903 37 75.653 35.5 Q 76.053 34.65 76.728 33.475 Q 77.403 32.3 77.953 31.15 Q 78.503 30 78.503 29.35 Q 78.503 28.7 77.803 28.7 Q 76.853 28.7 75.828 29.725 Q 74.803 30.75 73.803 32.35 Q 72.803 33.95 71.903 35.7 Q 71.003 37.45 70.353 38.975 Q 69.703 40.5 69.403 41.3 Q 69.103 42.05 68.553 42.25 Q 68.003 42.45 67.378 42.45 Q 66.753 42.45 66.203 42.65 Q 66.903 41.05 67.353 40.05 Q 67.803 39.05 68.303 38.025 Q 68.803 37 69.503 35.25 Q 69.903 34.35 70.403 33.175 Q 70.903 32 71.278 30.875 Q 71.653 29.75 71.653 29.1 Q 71.653 28.35 71.153 28.35 A 1.626 1.626 0 0 0 69.953 29.1 Q 69.353 29.85 68.878 30.775 Q 68.403 31.7 68.103 32.25 Q 67.353 33.7 66.603 35.1 A 22.901 22.901 0 0 1 65.189 37.399 A 19.419 19.419 0 0 1 63.153 40.1 Q 62.353 40.9 61.203 41.8 Q 60.053 42.7 58.903 42.7 Q 57.803 42.7 57.353 41.825 Q 56.903 40.95 56.903 39.85 Q 56.903 39.15 57.028 38.475 Q 57.153 37.8 57.303 37.3 Q 56.953 38.2 56.078 39.5 Q 55.203 40.8 54.128 41.775 Q 53.053 42.75 52.003 42.75 Q 50.303 42.75 49.678 41.8 Q 49.053 40.85 49.053 39.45 Q 49.053 38 49.553 36.4 Q 50.053 34.8 50.503 33.85 Q 52.103 30.5 54.978 28.725 Q 57.853 26.95 60.903 26.95 L 61.728 26.95 Q 62.153 26.95 62.553 27.05 Q 63.553 27.2 63.553 27.3 Q 63.553 27.4 62.828 27.5 Q 62.103 27.6 61.753 27.6 Q 59.303 27.6 57.378 28.9 Q 55.453 30.2 54.103 32.2 Q 52.753 34.2 52.028 36.275 Q 51.303 38.35 51.303 39.85 Q 51.303 40.8 51.628 41.4 Q 51.953 42 52.603 42 Q 53.303 42 54.203 41.05 Q 55.103 40.1 55.953 38.725 Q 56.803 37.35 57.503 36.025 Q 58.203 34.7 58.553 34 Z M 15.353 49.6 Q 18.803 49.6 21.978 47.575 Q 25.153 45.55 27.003 41.4 Q 24.803 42.5 22.403 42.5 Q 21.803 42.5 21.203 42.425 Q 20.603 42.35 20.053 42.25 Q 18.553 43.55 17.053 44.25 Q 15.553 44.95 14.003 44.85 Q 13.603 44.85 13.603 44.55 Q 13.603 44.35 13.853 44.2 Q 14.803 43.55 15.528 42.75 Q 16.253 41.95 16.853 41.05 Q 14.703 39.85 12.953 37.925 Q 11.203 36 10.178 33.575 Q 9.153 31.15 9.153 28.6 Q 9.153 24.9 10.478 22.475 Q 11.803 20.05 13.903 18.875 Q 16.003 17.7 18.403 17.7 Q 19.953 17.7 21.453 18.15 Q 21.753 16.5 22.228 14.95 Q 22.703 13.4 23.403 12.15 Q 24.153 10.85 25.528 9.225 Q 26.903 7.6 28.553 6.9 Q 21.703 7.95 16.578 10.575 Q 11.453 13.2 8.053 16.8 Q 4.653 20.4 2.978 24.45 Q 1.303 28.5 1.303 32.5 Q 1.303 36.65 2.503 39.85 Q 3.703 43.05 5.703 45.225 Q 7.703 47.4 10.228 48.5 Q 12.753 49.6 15.353 49.6 Z M 17.303 40.35 Q 18.503 38.2 19.153 35.575 Q 19.803 32.95 20.103 30.1 Q 20.403 27.25 20.653 24.375 Q 20.903 21.5 21.353 18.85 Q 20.003 18.4 18.603 18.4 Q 16.503 18.4 14.628 19.5 Q 12.753 20.6 11.578 22.875 Q 10.403 25.15 10.403 28.6 Q 10.403 30.95 11.303 33.225 Q 12.203 35.5 13.753 37.35 Q 15.303 39.2 17.303 40.35 Z M 19.003 41.15 L 19.503 41.35 A 26.017 26.017 0 0 0 23.564 36.695 A 49.679 49.679 0 0 0 23.878 36.25 Q 26.253 32.85 28.703 28.85 Q 28.253 25.9 27.028 23.775 Q 25.803 21.65 24.103 20.35 Q 24.053 22.9 23.953 25.65 Q 23.853 28.4 23.428 31.15 Q 23.003 33.9 21.978 36.425 Q 20.953 38.95 19.003 41.15 Z M 28.853 31.6 L 28.853 30.8 Q 26.853 34 24.828 36.825 Q 22.803 39.65 20.753 41.65 Q 21.503 41.8 22.303 41.8 Q 25.053 41.8 27.503 40.2 Q 28.153 38.4 28.503 36.25 Q 28.853 34.1 28.853 31.6 Z M 18.453 41.75 L 17.703 42.5 Q 18.153 42.3 18.803 41.9 L 18.453 41.75 Z"/></g></svg>