<svg width="107.56" height="43.468" viewBox="0 0 107.56 43.468" xmlns="http://www.w3.org/2000/svg"><g id="svgGroup" stroke-linecap="round" fill-rule="evenodd" font-size="9pt" stroke="#000000" stroke-width="0.25mm" fill="#000000" style="stroke:#000000;stroke-width:0.25mm;fill:#000000"><path d="M 61.338 21.971 A 2.368 2.368 0 0 0 59.851 21.605 Q 56.401 21.605 53.851 21.155 A 53.887 53.887 0 0 0 54.425 19.45 A 36.03 36.03 0 0 0 56.301 8.605 Q 56.301 4.605 54.426 2.305 Q 52.551 0.005 49.351 0.005 Q 46.751 0.005 44.626 1.355 Q 42.501 2.705 41.276 5.43 Q 40.051 8.155 40.051 12.105 Q 40.051 16.055 41.601 19.08 Q 43.151 22.105 46.201 24.005 Q 43.751 29.405 40.801 33.03 A 18.607 18.607 0 0 1 39.514 34.465 A 6.124 6.124 0 0 1 35.451 36.655 Q 33.401 36.655 32.326 34.93 Q 31.251 33.205 30.876 29.905 A 44.633 44.633 0 0 1 30.712 28.114 A 99.538 99.538 0 0 1 30.501 21.055 Q 30.501 12.905 31.901 4.755 Q 32.001 4.305 32.001 3.505 Q 32.001 2.155 31.276 1.48 Q 30.551 0.805 29.001 0.805 Q 27.151 0.805 26.076 1.68 Q 25.001 2.555 24.601 4.855 A 152.992 152.992 0 0 1 23.585 10.261 A 100.576 100.576 0 0 1 20.451 22.08 A 77.259 77.259 0 0 1 18.61 27 A 34.929 34.929 0 0 1 15.526 32.98 A 18.925 18.925 0 0 1 14.155 34.798 A 4.296 4.296 0 0 1 11.301 36.655 A 2.001 2.001 0 0 1 10.2 36.325 A 5.971 5.971 0 0 1 8.201 33.005 A 20.338 20.338 0 0 1 7.546 30.135 A 48.09 48.09 0 0 1 7.051 22.655 A 87.006 87.006 0 0 1 7.262 16.826 A 151.184 151.184 0 0 1 8.551 5.205 Q 8.651 4.205 8.651 3.855 Q 8.651 2.105 7.826 1.455 Q 7.001 0.805 5.501 0.805 Q 3.501 0.805 2.576 1.78 Q 1.651 2.755 1.301 5.255 A 142.36 142.36 0 0 0 0.996 7.432 A 107.279 107.279 0 0 0 0.001 21.405 A 65.418 65.418 0 0 0 0.36 28.533 A 33.318 33.318 0 0 0 2.451 37.48 A 16.976 16.976 0 0 0 2.931 38.548 A 7.449 7.449 0 0 0 9.701 43.455 Q 13.951 43.455 17.726 39.205 A 24.852 24.852 0 0 0 20.665 35.017 A 51.881 51.881 0 0 0 24.501 26.255 A 51.517 51.517 0 0 0 24.823 30.447 A 27.344 27.344 0 0 0 27.001 38.78 Q 29.201 43.455 33.601 43.455 A 9.894 9.894 0 0 0 36.618 42.973 A 17.111 17.111 0 0 0 43.326 38.53 Q 48.251 33.605 51.751 26.155 A 32.468 32.468 0 0 0 56.942 26.743 A 15.792 15.792 0 0 0 56.401 27.73 Q 54.551 31.305 54.551 35.305 Q 54.551 38.955 56.401 41.205 Q 58.251 43.455 61.351 43.455 Q 65.301 43.455 67.901 39.255 Q 68.601 41.205 69.976 42.33 Q 71.351 43.455 73.001 43.455 Q 75.151 43.455 77.451 41.705 A 25.188 25.188 0 0 0 79.225 40.198 A 14.688 14.688 0 0 0 79.576 41.455 Q 80.351 43.455 82.251 43.455 Q 83.801 43.455 84.526 42.63 A 2.138 2.138 0 0 0 84.537 42.617 A 7.873 7.873 0 0 0 85.801 39.455 Q 86.551 36.405 87.776 33.655 Q 89.001 30.905 90.176 29.23 Q 91.351 27.555 92.001 27.555 Q 92.551 27.555 92.551 28.355 A 6.8 6.8 0 0 1 92.527 28.88 A 34.048 34.048 0 0 1 91.901 32.705 A 78.732 78.732 0 0 0 91.594 34.368 A 22.158 22.158 0 0 0 91.201 37.705 Q 91.201 40.505 92.501 41.98 Q 93.801 43.455 96.351 43.455 Q 99.501 43.455 101.976 41.755 Q 104.451 40.055 106.601 37.405 Q 107.551 36.305 107.551 34.305 Q 107.551 33.255 107.176 32.655 Q 106.801 32.055 106.151 32.055 Q 105.401 32.055 104.801 32.755 A 86.993 86.993 0 0 1 104.236 33.424 A 35.593 35.593 0 0 1 101.126 36.73 Q 99.751 37.955 98.751 37.955 Q 97.301 37.955 97.301 35.955 A 10.361 10.361 0 0 1 97.413 34.644 A 60.012 60.012 0 0 1 98.251 30.205 A 90.181 90.181 0 0 0 98.921 26.823 A 23.37 23.37 0 0 0 99.351 23.155 Q 99.351 19.905 96.101 19.905 Q 94.451 19.905 92.476 21.055 Q 90.501 22.205 88.451 24.905 Q 86.401 27.605 84.751 31.905 Q 84.951 29.705 85.251 28.205 Q 85.551 26.705 86.051 24.705 Q 86.801 21.905 86.801 21.105 Q 86.801 20.405 86.401 20.155 A 2.08 2.08 0 0 0 85.49 19.923 A 6.239 6.239 0 0 0 85.001 19.905 Q 83.151 19.905 82.126 20.58 Q 81.101 21.255 80.651 22.705 A 40.719 40.719 0 0 0 78.806 34.157 A 33.422 33.422 0 0 1 76.351 36.73 Q 75.001 37.955 74.051 37.955 Q 73.451 37.955 73.076 37.505 A 1.814 1.814 0 0 1 72.701 36.305 A 19.968 19.968 0 0 1 72.89 33.899 A 83.352 83.352 0 0 1 73.851 28.305 Q 74.601 24.355 74.601 23.305 Q 74.601 21.555 72.151 21.555 Q 71.001 21.555 69.951 21.755 Q 69.701 20.655 69.326 20.23 Q 68.951 19.805 67.851 19.805 A 11.107 11.107 0 0 0 61.338 21.971 Z M 66.701 33.655 L 68.551 24.455 Q 66.451 24.505 64.676 26.03 Q 62.901 27.555 61.851 30.055 Q 60.801 32.555 60.801 35.355 Q 60.801 36.905 61.426 37.655 Q 62.051 38.405 63.151 38.405 Q 64.251 38.405 65.251 37.105 Q 66.251 35.805 66.701 33.655 Z M 45.101 11.755 Q 45.101 16.655 48.251 19.005 Q 50.201 13.405 50.201 9.755 Q 50.201 7.655 49.651 6.68 Q 49.101 5.705 48.151 5.705 Q 46.801 5.705 45.951 7.28 Q 45.101 8.855 45.101 11.755 Z"/></g></svg>